<svg width="16" height="16" viewBox="0 0 16 16" fill="none" xmlns="http://www.w3.org/2000/svg">
<path d="M12.9995 12C12.9995 12.1326 12.9468 12.2598 12.8531 12.3536C12.7593 12.4473 12.6321 12.5 12.4995 12.5H11.4995V13.5C11.4995 13.6326 11.4468 13.7598 11.3531 13.8536C11.2593 13.9473 11.1321 14 10.9995 14C10.8669 14 10.7397 13.9473 10.646 13.8536C10.5522 13.7598 10.4995 13.6326 10.4995 13.5V12.5H9.49953C9.36692 12.5 9.23974 12.4473 9.14597 12.3536C9.0522 12.2598 8.99953 12.1326 8.99953 12C8.99953 11.8674 9.0522 11.7402 9.14597 11.6464C9.23974 11.5527 9.36692 11.5 9.49953 11.5H10.4995V10.5C10.4995 10.3674 10.5522 10.2402 10.646 10.1464C10.7397 10.0527 10.8669 10 10.9995 10C11.1321 10 11.2593 10.0527 11.3531 10.1464C11.4468 10.2402 11.4995 10.3674 11.4995 10.5V11.5H12.4995C12.6321 11.5 12.7593 11.5527 12.8531 11.6464C12.9468 11.7402 12.9995 11.8674 12.9995 12ZM4.49953 4H4.99953V4.5C4.99953 4.63261 5.0522 4.75979 5.14597 4.85355C5.23974 4.94732 5.36692 5 5.49953 5C5.63213 5 5.75931 4.94732 5.85308 4.85355C5.94685 4.75979 5.99953 4.63261 5.99953 4.5V4H6.49953C6.63213 4 6.75931 3.94732 6.85308 3.85355C6.94685 3.75979 6.99953 3.63261 6.99953 3.5C6.99953 3.36739 6.94685 3.24021 6.85308 3.14645C6.75931 3.05268 6.63213 3 6.49953 3H5.99953V2.5C5.99953 2.36739 5.94685 2.24021 5.85308 2.14645C5.75931 2.05268 5.63213 2 5.49953 2C5.36692 2 5.23974 2.05268 5.14597 2.14645C5.0522 2.24021 4.99953 2.36739 4.99953 2.5V3H4.49953C4.36692 3 4.23974 3.05268 4.14597 3.14645C4.0522 3.24021 3.99953 3.36739 3.99953 3.5C3.99953 3.63261 4.0522 3.75979 4.14597 3.85355C4.23974 3.94732 4.36692 4 4.49953 4ZM0.999525 7H1.99953V8C1.99953 8.13261 2.0522 8.25979 2.14597 8.35355C2.23974 8.44732 2.36692 8.5 2.49953 8.5C2.63213 8.5 2.75931 8.44732 2.85308 8.35355C2.94685 8.25979 2.99953 8.13261 2.99953 8V7H3.99953C4.13213 7 4.25931 6.94732 4.35308 6.85355C4.44685 6.75979 4.49953 6.63261 4.49953 6.5C4.49953 6.36739 4.44685 6.24021 4.35308 6.14645C4.25931 6.05268 4.13213 6 3.99953 6H2.99953V5C2.99953 4.86739 2.94685 4.74021 2.85308 4.64645C2.75931 4.55268 2.63213 4.5 2.49953 4.5C2.36692 4.5 2.23974 4.55268 2.14597 4.64645C2.0522 4.74021 1.99953 4.86739 1.99953 5V6H0.999525C0.866917 6 0.739739 6.05268 0.645971 6.14645C0.552203 6.24021 0.499525 6.36739 0.499525 6.5C0.499525 6.63261 0.552203 6.75979 0.645971 6.85355C0.739739 6.94732 0.866917 7 0.999525 7ZM2.29265 11L10.9995 2.29313C11.187 2.10573 11.4413 2.00046 11.7064 2.00046C11.9715 2.00046 12.2258 2.10573 12.4133 2.29313L13.707 3.58562C13.7999 3.67849 13.8736 3.78874 13.9239 3.91008C13.9741 4.03142 14 4.16147 14 4.29281C14 4.42415 13.9741 4.55421 13.9239 4.67555C13.8736 4.79689 13.7999 4.90714 13.707 5L4.99953 13.7069C4.90666 13.7998 4.79641 13.8734 4.67507 13.9237C4.55373 13.974 4.42368 13.9998 4.29234 13.9998C4.161 13.9998 4.03094 13.974 3.9096 13.9237C3.78826 13.8734 3.67801 13.7998 3.58515 13.7069L2.29265 12.4144C2.19977 12.3215 2.12609 12.2113 2.07582 12.0899C2.02555 11.9686 1.99968 11.8385 1.99968 11.7072C1.99968 11.5758 2.02555 11.4458 2.07582 11.3245C2.12609 11.2031 2.19977 11.0929 2.29265 11ZM2.99953 11.7069L4.29265 13L6.29265 11L4.99953 9.70687L2.99953 11.7069Z" fill="url(#paint0_linear_0_588)"/>
<defs>
<linearGradient id="paint0_linear_0_588" x1="12.9118" y1="12.9985" x2="3.99351" y2="12.8611" gradientUnits="userSpaceOnUse">
<stop stop-color="#EC83BB"/>
<stop offset="1" stop-color="#B664DB"/>
</linearGradient>
</defs>
</svg>
