<svg width="16" height="16" viewBox="0 0 16 16" fill="none" xmlns="http://www.w3.org/2000/svg">
<path d="M8 6C11.722 6 14 7.295 14 8C14 8.705 11.722 10 8 10C4.278 10 2 8.705 2 8C2 7.295 4.278 6 8 6ZM8 5C4.134 5 1 6.343 1 8C1 9.657 4.134 11 8 11C11.866 11 15 9.657 15 8C15 6.343 11.866 5 8 5Z" fill="#0288D1"/>
<path d="M8 7C7.80222 7 7.60888 7.05865 7.44443 7.16853C7.27998 7.27841 7.15181 7.43459 7.07612 7.61732C7.00043 7.80004 6.98063 8.00111 7.01922 8.19509C7.0578 8.38907 7.15304 8.56725 7.29289 8.70711C7.43275 8.84696 7.61093 8.9422 7.80491 8.98079C7.99889 9.01937 8.19996 8.99957 8.38268 8.92388C8.56541 8.84819 8.72159 8.72002 8.83147 8.55557C8.94135 8.39112 9 8.19778 9 8C9 7.73478 8.89464 7.48043 8.70711 7.29289C8.51957 7.10536 8.26522 7 8 7Z" fill="#0288D1"/>
<path d="M5.22882 2.75391C6.23732 2.75391 8.19732 4.34241 9.73182 7.00041C11.5928 10.2239 11.6103 12.8439 10.9998 13.1964C10.9294 13.2329 10.8506 13.2502 10.7713 13.2464C9.76282 13.2464 7.80232 11.6584 6.26782 9.00041C4.40682 5.77691 4.38932 3.15691 4.99982 2.80441C5.0704 2.7678 5.14941 2.75005 5.22882 2.75391ZM5.22832 1.75441C4.9735 1.7498 4.72205 1.81313 4.49982 1.93791C3.06482 2.76641 3.46882 6.15241 5.40182 9.50041C7.04382 12.3454 9.26182 14.2469 10.7718 14.2469C11.0266 14.2511 11.2778 14.1874 11.4998 14.0624C12.9348 13.2344 12.5308 9.84841 10.5978 6.50041C8.95582 3.65541 6.73782 1.75391 5.22782 1.75391L5.22832 1.75441Z" fill="#0288D1"/>
<path d="M10.7712 2.75411C10.8505 2.75034 10.9293 2.76759 10.9997 2.80411C11.6102 3.15711 11.5927 5.77711 9.73171 9.00061C8.19671 11.6586 6.23671 13.2471 5.22821 13.2471C5.14897 13.2509 5.07014 13.2336 4.99971 13.1971C4.38921 12.8436 4.40671 10.2236 6.26771 7.00061C7.80271 4.34261 9.76271 2.75411 10.7712 2.75411ZM10.7712 1.75411C9.26121 1.75411 7.04371 3.65611 5.40121 6.50061C3.46921 9.84861 3.06471 13.2346 4.49971 14.0626C4.72184 14.1877 4.9733 14.2514 5.22821 14.2471C6.73821 14.2471 8.95571 12.3451 10.5982 9.50061C12.5302 6.15261 12.9347 2.76661 11.4997 1.93861C11.2776 1.81349 11.0261 1.7498 10.7712 1.75411Z" fill="#0288D1"/>
</svg>
